<?xml version="1.0" encoding="utf-8"?>
<!-- Generator: Adobe Illustrator 24.0.3, SVG Export Plug-In . SVG Version: 6.00 Build 0)  -->
<svg version="1.1" id="Layer_1" focusable="false" xmlns="http://www.w3.org/2000/svg" xmlns:xlink="http://www.w3.org/1999/xlink"
	 x="0px" y="0px" viewBox="0 0 496 512" style="enable-background:new 0 0 496 512;" xml:space="preserve">
<style type="text/css">
	.st0{fill:#B90004;}
</style>
<path class="st0" d="M248,8C111,8,0,119,0,256s111,248,248,248s248-111,248-248S385,8,248,8z M248,456c-110.3,0-200-89.7-200-200
	S137.7,56,248,56s200,89.7,200,200S358.3,456,248,456z M168,240c17.7,0,32-14.3,32-32s-14.3-32-32-32s-32,14.3-32,32
	S150.3,240,168,240z M328,176c-17.7,0-32,14.3-32,32s14.3,32,32,32s32-14.3,32-32S345.7,176,328,176z M248,304
	c-40.2,0-78,17.7-103.8,48.6c-8.5,10.2-7.1,25.3,3.1,33.8c10.2,8.4,25.3,7.1,33.8-3.1c16.6-19.9,41-31.4,66.9-31.4
	s50.3,11.4,66.9,31.4c8.1,9.7,23.1,11.9,33.8,3.1c10.2-8.5,11.5-23.6,3.1-33.8C326,321.7,288.2,304,248,304z"/>
</svg>
